<svg width="64" height="64" version="1.1" viewBox="0 0 64 64" xmlns="http://www.w3.org/2000/svg">
	<defs fill="rgb(200,200,255)" fill-opacity=".3">
		<symbol id="epines" viewBox="0 0 64 64">
			<path d="m32 0.61814-0.75728 5.6152-3.7208-2.8728 3.7208 5.134v2.2619l-5.2545-5.0463 5.2545 7.3074v2.2612l-7.5057-7.447 2.9681 4.2066-2.5975 0.27988 4.1098 1.677 1.513 1.9569-3.7185-0.26234 5.2308 2.22-2.6501 2.8408 2.6196 2.8415-0.36911 1.0814-3.7338-3.5355-0.41105-4.3828-0.80838 2.3321-1.3224-2.223-0.45986-4.546-0.86252 2.3222-1.3224-2.223-0.40571-4.5361-0.91667 2.3123-1.3224-2.223-2.3466-2.0705 0.61925 3.0673 1.2644 2.2574-2.461-0.36224 3.7254 2.6188 1.2644 2.2566-2.4427-0.4141 3.7071 2.6715 1.2644 2.2566-2.4244-0.46596 3.5904 2.5479 1.195 5.0013-1.1211-0.22116-1.1516-3.6896-3.7849 0.87473 0.69246-5.6404-1.6312 3.351-0.93879-2.2879 0.60247-4.398-1.5413 2.1102-2.1582-4.6749 2.6959 10.224-1.9584-1.131-3.701-8.2035 1.7434 7.0733-1.9592-1.131-2.586-5.7891 0.62764 4.6581-5.2415-2.1514 4.4842 3.4638-4.3485 1.7853 6.3069-0.65509 1.9592 1.131-6.9978 2.027 8.9555-0.89608 1.9584 1.1302-10.202 2.7767 5.1271-0.46748-1.0562 2.3901 3.5073-2.721 2.4511-0.33174-2.0865 3.0894 4.5384-3.4204 1.1348 3.7155 3.7712-0.84804 0.75195 0.86024-4.9288 1.4658-4.0015-1.8349 1.616 1.8661-2.5868 0.03354-4.167-1.8745 1.5802 1.9081-2.5868 0.03354-4.1311-1.9172 1.5443 1.95-2.5868 0.03432-2.9658 0.99675 2.9666 0.99674 2.586 0.03432-1.5443 1.95 4.1311-1.9172 2.5868 0.03354-1.5802 1.9081 4.167-1.8745 2.5868 0.03354-1.616 1.8661 4.0015-1.8349 4.9288 1.4658-0.75195 0.86024-3.7712-0.84804-1.1348 3.7155-4.5384-3.4204 2.0865 3.0886-2.4511-0.33098-3.5073-2.721 1.0562 2.3901-5.1271-0.46825 10.202 2.7775-1.9584 1.1302-8.9555-0.89608 6.9978 2.027-1.9592 1.131-6.3069-0.6551 4.3485 1.7853-4.4842 3.4638 5.2415-2.1521-0.62764 4.6589 2.586-5.7891 1.9592-1.131-1.7434 7.0733 3.701-8.2043 1.9584-1.1302-2.6966 10.224 2.159-4.6741 1.5413 2.1102-0.60247-4.398 0.93802-2.2886 1.632 3.3517-0.69246-5.6404 3.7849 0.87473 1.1516-3.6896 1.1211-0.22116-1.195 5.0013-3.5904 2.5479 2.4244-0.46596-1.2644 2.2566-3.7071 2.6715 2.4427-0.41487-1.2644 2.2574-3.7254 2.6188 2.461-0.36224-1.2637 2.2574-0.62001 3.0673 2.3466-2.0705 1.3224-2.223 0.91667 2.3123 0.40571-4.5361 1.3224-2.223 0.86252 2.3222 0.45986-4.546 1.3224-2.223 0.80838 2.3321 0.41105-4.3828 3.7338-3.5355 0.36911 1.0814-2.6196 2.8415 2.6501 2.8408-5.2308 2.22 3.7178-0.26234-1.5123 1.9569-4.1098 1.677 2.5975 0.27988-2.9689 4.2066 7.5065-7.447v2.2612l-5.2545 7.3074 5.2545-5.0463v2.2619l-3.7208 5.134 3.7208-2.8728 0.75728 5.6152 0.75729-5.6152 3.7208 2.8728-3.7208-5.134v-2.2619l5.2545 5.0463-5.2545-7.3074v-2.2612l7.5057 7.447-2.9681-4.2066 2.5975-0.27988-4.1098-1.677-1.513-1.9569 3.7185 0.26234-5.2308-2.22 2.6501-2.8408-2.6196-2.8415 0.36911-1.0814 3.7338 3.5355 0.41105 4.3828 0.80838-2.3321 1.3224 2.223 0.45986 4.546 0.86252-2.3222 1.3224 2.223 0.40571 4.5361 0.91667-2.3123 1.3224 2.223 2.3466 2.0705-0.61925-3.0673-1.2644-2.2574 2.461 0.36224-3.7254-2.6188-1.2644-2.2574 2.4427 0.4141-3.7071-2.6707-1.2637-2.2566 2.4236 0.46596-3.5904-2.5479-1.195-5.0013 1.1211 0.22116 1.1516 3.6896 3.7849-0.87473-0.69246 5.6404 1.6313-3.351 0.93879 2.2879-0.60247 4.3973 1.5413-2.1094 2.1582 4.6749-2.6959-10.224 1.9584 1.1302 3.701 8.2043-1.7426-7.0733 1.9584 1.131 2.586 5.7891-0.62764-4.6589 5.2415 2.1521-4.4842-3.4638 4.3485-1.7853-6.3069 0.6551-1.9584-1.131 6.9971-2.027-8.9555 0.89608-1.9584-1.1302 10.202-2.7767-5.1271 0.46748 1.0562-2.3901-3.5073 2.721-2.4511 0.33174 2.0865-3.0894-4.5384 3.4204-1.1348-3.7155-3.7704 0.84804-0.75271-0.86024 4.9288-1.4658 4.0015 1.8349-1.6152-1.8661 2.586-0.03354 4.167 1.8745-1.5802-1.9081 2.5868-0.03354 4.1311 1.9172-1.5443-1.95 2.5868-0.03432 2.9658-0.99674-2.9658-0.99675-2.5868-0.03432 1.5443-1.95-4.1311 1.9172-2.5868-0.03432 1.5802-1.9073-4.167 1.8745-2.586-0.03354 1.6152-1.8661-4.0015 1.8349-4.9288-1.4658 0.75194-0.86024 3.7712 0.84804 1.1348-3.7155 4.5384 3.4204-2.0865-3.0886 2.4511 0.33098 3.5073 2.721-1.0562-2.3901 5.1271 0.46825-10.202-2.7775 1.9584-1.131 8.9555 0.89684-6.9971-2.027 1.9584-1.131 6.3069 0.6551-4.3485-1.7861 4.4842-3.4631-5.2415 2.1514 0.62764-4.6581-2.586 5.7891-1.9584 1.131 1.7426-7.0733-3.701 8.2035-1.9584 1.131 2.6966-10.224-2.159 4.6741-1.5413-2.1102 0.60247 4.398-0.93803 2.2886-1.632-3.3517 0.69246 5.6404-3.7849-0.87473-1.1516 3.6896-1.1211 0.22116 1.195-5.0013 3.5904-2.5479-2.4236 0.46596 1.2637-2.2566 3.7071-2.6715-2.4427 0.4141 1.2644-2.2566 3.7254-2.6188-2.461 0.36224 1.2644-2.2574 0.61925-3.0673-2.3466 2.0705-1.3224 2.223-0.91667-2.3123-0.40571 4.5361-1.3224 2.223-0.86252-2.3222-0.45986 4.546-1.3224 2.223-0.80838-2.3321-0.41105 4.3828-3.7338 3.5355-0.36911-1.0814 2.6196-2.8415-2.6501-2.8408 5.2308-2.22-3.7178 0.26234 1.5123-1.9569 4.1098-1.677-2.5975-0.27988 2.9689-4.2066-7.5065 7.447v-2.2612l5.2545-7.3074-5.2545 5.0463v-2.2619l3.7208-5.134-3.7208 2.8728zm0 18.154 1.8455 1.9782-1.8455 2.0019-1.8455-2.0019zm-5.5214 3.6644 3.6827 3.0162-0.97539 1.6732-1.9363 0.0076zm11.043 0-0.77101 4.697-1.9363-0.0076-0.9754-1.6732zm-14.341 2.3405 0.81143 2.599-2.657 0.59713-0.79008-2.5868zm17.639 0 2.6356 0.60857-0.79007 2.5876-2.657-0.59713zm-8.8197 2.1811 1.4398 2.5487 2.9262-0.02823-1.4871 2.5212 1.4871 2.5205-2.9262-0.02671h-7.8e-4l-1.4391 2.5479-1.4398-2.5479v-7.81e-4l-2.9262 0.02823 1.4864-2.5212h0.0016l-7.81e-4 -7.81e-4 -1.4871-2.5205 2.9262 0.02745h7.81e-4zm-6.5891 3.3601 0.9609 1.6816-0.9609 1.6816-4.4545-1.6816zm13.178 0 4.4545 1.6816-4.4545 1.6816-0.9609-1.6816zm-17.254 5.7082 2.657 0.59713-0.81143 2.599-2.6356-0.60857zm21.331 0 0.79007 2.5868-2.6356 0.60933-0.81143-2.599zm-5.9149 0.83888 0.77101 4.6978-3.6827-3.0162 0.9754-1.6732zm-9.5007 7.81e-4 1.9363 0.0076 0.97539 1.6732-3.6827 3.0162zm4.7504 4.3813 1.8455 2.0019-1.8455 1.9782-1.8455-1.9782z"/>
		</symbol>
		<symbol id="sapins" viewBox="0 0 64 64">
			<path d="m32 0c-0.33664 0-0.89074 0.61723-0.89074 1.8867v2.6692l-1.176-1.5413c-0.74927-0.98204-1.8635 0.2785-0.88617 1.2919l2.0621 2.1384v1.8882l-2.9475-2.7348c-0.8324-0.7722-1.7702 0.52446-0.88617 1.2926l3.8337 3.3311v1.8882l-4.7199-3.9275c-1.0072-0.83824-1.7651 0.58182-0.8854 1.2919l5.6053 4.5246v1.8882l-6.4914-5.1202c-0.97784-0.77143-1.9588 0.45991-0.8854 1.2919l7.3768 5.7174v1.8883l-10.782-7.8825 1.436 13.279-1.6358-0.94489-1.2629-9.2468c-0.18378-1.3456-1.741-1.1113-1.5618 0.12125l1.1889 8.1814-1.6351-0.94412-1.1157-7.1168c-0.17508-1.1169-1.7842-1.1701-1.5618 0.12125l1.0417 6.0514-1.6358-0.94489-0.96777-4.9853c-0.22325-1.1497-1.8144-0.98572-1.5618 0.12126l0.89455 3.9199-1.6358-0.94413-0.82058-2.8545c-0.38896-1.3531-2.0377-1.0194-1.5618 0.1205l0.74661 1.7899-2.3115-1.3354c-1.0994-0.63475-1.9113-0.46313-2.0797-0.17159-0.16832 0.29155 0.08951 1.0804 1.1889 1.7151l2.3115 1.3346-1.9233 0.24785c-1.2251 0.15787-0.68982 1.7528 0.67645 1.4131l2.8827-0.71687 1.6358 0.94413-3.8429 1.1859c-1.0849 0.33477-0.43084 1.7946 0.67645 1.4131l4.8015-1.6541 1.6358 0.94412-5.7616 2.1231c-1.2295 0.45313-0.37834 1.82 0.67645 1.4131l6.721-2.5922 1.6351 0.94413-7.6804 3.0612c-1.157 0.46112-0.58077 1.9268 0.67644 1.4131l8.6397-3.5294 1.6358 0.94413-12.218 5.3956 12.218 5.3963-1.6358 0.94413-8.6397-3.5302c-1.2572-0.51365-1.8334 0.95202-0.67644 1.4131l7.6804 3.0612-1.6351 0.94412-6.721-2.5922c-1.0548-0.40681-1.906 0.96077-0.67645 1.4139l5.7616 2.1231-1.6358 0.94413-4.8015-1.6541c-1.1073-0.38151-1.7614 1.0784-0.67645 1.4131l3.8429 1.1851-1.6358 0.94413-2.8827-0.7161c-1.3663-0.33969-1.9016 1.2553-0.67645 1.4131l1.9233 0.24786-2.3115 1.3346c-1.0994 0.63474-1.3572 1.4236-1.1889 1.7151 0.16832 0.29154 0.98025 0.4624 2.0797-0.17235l2.3115-1.3346-0.74661 1.7891c-0.47583 1.1399 1.1729 1.4743 1.5618 0.12126l0.82058-2.8545 1.6358-0.94489-0.89455 3.9206c-0.25256 1.107 1.3386 1.2702 1.5618 0.1205l0.96777-4.9853 1.6358-0.94413-1.0417 6.0506c-0.22234 1.2914 1.3868 1.2381 1.5618 0.12125l1.1157-7.116 1.6351-0.94489-1.1889 8.1822c-0.17916 1.2326 1.3781 1.4669 1.5618 0.12126l1.2629-9.2476 1.6358-0.94412-1.436 13.279 10.782-7.8832v1.889l-7.3768 5.7174c-1.0734 0.83196-0.09243 2.0633 0.8854 1.2919l6.4914-5.121v1.889l-5.6053 4.5239c-0.87971 0.71007-0.12178 2.1309 0.8854 1.2926l4.7199-3.9283v1.889l-3.8337 3.3311c-0.88405 0.76819 0.05377 2.0641 0.88617 1.2919l2.9475-2.7348v1.889l-2.0621 2.1376c-0.97731 1.0134 0.1369 2.2747 0.88617 1.2926l1.176-1.542v2.6699c0 1.2695 0.5541 1.8867 0.89074 1.8867s0.89074-0.61723 0.89074-1.8867v-2.6699l1.176 1.542c0.74927 0.98204 1.8635-0.27925 0.88617-1.2926l-2.0621-2.1376v-1.889l2.9475 2.7348c0.8324 0.77221 1.7702-0.52369 0.88617-1.2919l-3.8337-3.3311v-1.889l4.7191 3.9283c1.0072 0.83824 1.7659-0.58258 0.88617-1.2926l-5.6053-4.5239v-1.889l6.4907 5.121c0.97784 0.77143 1.9596-0.45992 0.88617-1.2919l-7.3768-5.7174v-1.889l10.782 7.8832-1.436-13.279 1.6358 0.94412 1.2629 9.2476c0.18378 1.3456 1.741 1.1113 1.5618-0.12126l-1.1897-8.1822 1.6358 0.94489 1.1157 7.116c0.17508 1.1169 1.7842 1.1701 1.5618-0.12125l-1.0417-6.0506 1.6358 0.94413 0.96777 4.9853c0.22325 1.1497 1.8144 0.98648 1.5618-0.1205l-0.89456-3.9206 1.6358 0.94489 0.82058 2.8545c0.38896 1.3531 2.0377 1.0186 1.5618-0.12126l-0.74661-1.7891 2.3115 1.3346c1.0994 0.63475 1.9113 0.46389 2.0797 0.17235 0.16832-0.29153-0.08951-1.0804-1.1889-1.7151l-2.3115-1.3346 1.9226-0.24786c1.2251-0.15787 0.69058-1.7528-0.67568-1.4131l-2.8827 0.7161-1.6358-0.94413 3.8421-1.1851c1.085-0.33477 0.43161-1.7946-0.67568-1.4131l-4.8015 1.6541-1.6358-0.94413 5.7608-2.1231c1.2295-0.45313 0.3791-1.8207-0.67568-1.4139l-6.721 2.5922-1.6358-0.94412 7.6804-3.0612c1.157-0.46112 0.58154-1.9268-0.67568-1.4131l-8.6397 3.5302-1.6358-0.94413 12.218-5.3963-12.218-5.3956 1.6358-0.94413 8.6397 3.5294c1.2572 0.51364 1.8327-0.95202 0.67568-1.4131l-7.6804-3.0612 1.6358-0.94413 6.721 2.5922c1.0548 0.40682 1.9052-0.96 0.67568-1.4131l-5.7608-2.1231 1.6358-0.94412 4.8015 1.6541c1.1073 0.38151 1.7606-1.0784 0.67568-1.4131l-3.8421-1.1859 1.6358-0.94413 2.8827 0.71687c1.3663 0.33968 1.9008-1.2553 0.67568-1.4131l-1.9226-0.24785 2.3115-1.3346c1.0994-0.63475 1.3573-1.4236 1.1889-1.7151-0.16833-0.29154-0.98025-0.46316-2.0797 0.17159l-2.3115 1.3354 0.74661-1.7899c0.47583-1.1399-1.1729-1.4736-1.5618-0.1205l-0.82058 2.8545-1.6358 0.94413 0.89456-3.9199c0.25255-1.107-1.3386-1.271-1.5618-0.12126l-0.96777 4.9853-1.6358 0.94489 1.0417-6.0514c0.22234-1.2914-1.3868-1.2381-1.5618-0.12125l-1.1157 7.1168-1.6358 0.94412 1.1897-8.1814c0.17916-1.2326-1.3781-1.4669-1.5618-0.12125l-1.2629 9.2468-1.6358 0.94489 1.436-13.279-10.782 7.8825v-1.8883l7.3768-5.7174c1.0734-0.83197 0.09167-2.0633-0.88617-1.2919l-6.4907 5.1202v-1.8882l5.6053-4.5246c0.87971-0.71006 0.12102-2.1301-0.88617-1.2919l-4.7191 3.9275v-1.8882l3.8337-3.3311c0.88405-0.76819-0.05377-2.0648-0.88617-1.2926l-2.9475 2.7348v-1.8882l2.0621-2.1384c0.97731-1.0134-0.1369-2.2739-0.88617-1.2919l-1.176 1.5413v-2.6692c0-1.2695-0.5541-1.8867-0.89074-1.8867zm-10.212 14.312 9.3208 7.2419-0.07779 4.6467-0.96548 0.50028-1.4276-2.5159 0.14871-3.2152-0.98531 1.6526-2.5456-2.3031 0.7222 3.3563-1.9241 0.0267 2.8583 1.4787 1.465 2.4945-0.91591 0.58569-4.0625-2.2558zm20.423 0-1.6107 11.693-4.0625 2.2558-0.91591-0.5857 1.4642-2.4945 2.8591-1.4787-1.9241-0.0267 0.7222-3.3563-2.5456 2.3031-0.98531-1.6526 0.14871 3.2152-1.4276 2.5159-0.96548-0.50028-0.07779-4.6467zm-19.703 13.236 3.9847 2.3908-0.04881 1.086-2.8926-0.0214-2.7104-1.7365 0.93878 1.6801-3.2678 1.0524 3.2678 1.0532-0.93878 1.6793 2.7104-1.7357 2.8926-0.0221 0.04881 1.086-3.9847 2.3908-10.931-4.4514zm18.983 0 10.931 4.4514-10.931 4.4514-3.9847-2.3908 0.04881-1.086 2.8926 0.0221 2.7104 1.7357-0.93879-1.6793 3.2678-1.0532-3.2678-1.0524 0.93879-1.6801-2.7104 1.7365-2.8926 0.0214-0.04881-1.086zm-9.4916 0.28751 3.5881 2.082v4.1639l-3.5881 2.082-3.5881-2.082v-4.1639zm-4.5384 7.903 0.91591 0.58493-1.465 2.4945-2.8583 1.4787 1.9241 0.0274-0.7222 3.3563 2.5456-2.3039 0.98531 1.6526-0.14871-3.2144 1.4276-2.5159 0.96548 0.50028 0.07779 4.6466-9.3208 7.2403 1.6107-11.692zm9.0767 0 4.0625 2.2558 1.6107 11.692-9.3208-7.2403 0.07779-4.6466 0.96548-0.50028 1.4276 2.5159-0.14871 3.2144 0.98531-1.6526 2.5456 2.3039-0.7222-3.3563 1.9241-0.0274-2.8591-1.4787-1.4642-2.4945z"/>
		</symbol>
		<symbol id="coeurs" viewBox="0 0 64 64">
			<path d="m32 0.60425c-0.73472 1.0874-1.308 2.2832-1.6953 3.537-0.3629 1.1748-0.5594 2.4001-0.58874 3.6293-0.01257-6e-3 -0.02475-0.0131-0.03737-0.0191-0.50379-0.23958-1.0449-0.42007-1.6023-0.44232-0.55741-0.0223-1.1342 0.12557-1.5634 0.48198-0.3796 0.31526-0.62263 0.777-0.72068 1.2606-0.09804 0.48361-0.05824 0.98867 0.06482 1.4665 0.24613 0.95571 0.79995 1.7982 1.3331 2.6288l3.9794 6.1994-0.75347 0.70009-2.0004-3.1374c-0.12849-0.20151-0.25916-0.40378-0.4202-0.58036s-0.35284-0.32748-0.57044-0.42631c-0.2176-0.0988-0.46043-0.14377-0.69856-0.12354-0.23814 0.0202-0.47051 0.10562-0.66424 0.24556-0.35223-1.1386-1.0002-2.184-1.8631-3.0062-1.1497-1.0955-2.6804-1.7834-4.2631-1.9142l1.0242 1.7739-1.025-1.7739c-0.6781 1.436-0.84751 3.1055-0.47359 4.6489 0.28064 1.1584 0.86168 2.2425 1.6717 3.1168-0.21806 0.0978-0.40793 0.25612-0.54451 0.45223-0.1366 0.19611-0.2193 0.42868-0.24251 0.66654-0.02319 0.23786 0.01148 0.47995 0.08389 0.70771 0.0724 0.22776 0.18258 0.44153 0.29285 0.65357l1.7167 3.3022-0.98302 0.30199-3.3792-6.5463c-0.45269-0.87694-0.90529-1.7776-1.6099-2.4686-0.3523-0.3455-0.76989-0.63242-1.2377-0.78931-0.46784-0.1569-0.98921-0.17725-1.452-6e-3 -0.52323 0.19345-0.94018 0.61957-1.1996 1.1134-0.25944 0.49386-0.37274 1.0515-0.41715 1.6076-0.0012 0.0142-0.0019 0.0285-3e-3 0.0427-1.0792-0.58916-2.2383-1.0325-3.4371-1.3056-1.2795-0.2915-2.6017-0.39231-3.9107-0.29971 0.57434 1.18 1.3232 2.2742 2.2154 3.2366 0.83596 0.90168 1.7993 1.6845 2.8492 2.3245-0.01156 8e-3 -0.0236 0.015-0.03508 0.0229-0.45938 0.3165-0.88638 0.69521-1.1844 1.1668-0.29798 0.47161-0.45861 1.0448-0.36453 1.5946 0.08322 0.48637 0.36156 0.9278 0.73135 1.2545 0.36979 0.32671 0.82719 0.54486 1.3026 0.67721 0.95073 0.2647 1.9572 0.20658 2.943 0.16015l7.3585-0.34699 0.22955 1.0028-3.717 0.1632c-0.23876 0.0105-0.4796 0.0228-0.71305 0.074-0.23345 0.0512-0.45994 0.14161-0.65433 0.28064-0.19438 0.13904-0.35451 0.32741-0.45605 0.54376-0.10155 0.21634-0.14406 0.46005-0.11973 0.69779-1.1622-0.26428-2.3913-0.22556-3.5348 0.11058-1.5236 0.44789-2.8849 1.4295-3.7895 2.7348 0.90457 1.3053 2.2659 2.2876 3.7895 2.7355 1.1435 0.33615 2.3725 0.3741 3.5348 0.10982-0.02433 0.23774 0.01819 0.48221 0.11973 0.69856 0.10154 0.21634 0.26166 0.40395 0.45605 0.54299 0.19439 0.13903 0.42088 0.22946 0.65433 0.28064 0.23345 0.0512 0.47429 0.0634 0.71305 0.074l3.7178 0.16397-0.23032 1.0021-7.3585-0.34623c-0.9858-0.0464-1.9922-0.10531-2.943 0.15939-0.47537 0.13235-0.93276 0.3505-1.3026 0.67721-0.3698 0.32671-0.64813 0.76814-0.73135 1.2545-0.09408 0.54986 0.06655 1.1238 0.36453 1.5954 0.29798 0.4716 0.72497 0.84955 1.1844 1.166 0.01171 8e-3 0.02333 0.0156 0.03508 0.0236-1.0498 0.64003-2.0124 1.422-2.8484 2.3237-0.89222 0.96237-1.6418 2.0566-2.2162 3.2366 1.3091 0.0926 2.6312-9e-3 3.9107-0.30047 1.1989-0.27313 2.3587-0.7149 3.4379-1.3041 0.0012 0.0139 0.0011 0.0273 0.0023 0.0412 0.04441 0.55609 0.15848 1.1153 0.41792 1.6091 0.25943 0.49385 0.67561 0.91921 1.1988 1.1127 0.46283 0.17112 0.9842 0.15077 1.452-6e-3 0.46784-0.15689 0.88544-0.4438 1.2377-0.78931 0.7046-0.691 1.1572-1.5917 1.6099-2.4686l3.3792-6.5463 0.98302 0.30276-1.7167 3.3014c-0.11027 0.21203-0.22044 0.42581-0.29285 0.65357-0.0724 0.22776-0.1071 0.46985-0.08389 0.70772 0.02319 0.23786 0.10592 0.47042 0.24251 0.66653 0.13658 0.19611 0.32645 0.35443 0.54451 0.45223-0.80999 0.87437-1.391 1.9585-1.6717 3.1168-0.37392 1.5434-0.20451 3.2129 0.47359 4.6489l0.62764-1.086-0.62687 1.086c1.5827-0.13075 3.1134-0.81864 4.2631-1.9142 0.86286-0.82222 1.5109-1.8676 1.8631-3.0062 0.19373 0.13994 0.42611 0.22533 0.66424 0.24556 0.23813 0.0202 0.48096-0.0247 0.69856-0.12354 0.2176-0.0988 0.4094-0.24973 0.57044-0.42631s0.29172-0.37885 0.4202-0.58036l2.0011-3.1374 0.75271 0.70008-3.9794 6.1994c-0.53311 0.83051-1.0869 1.673-1.3331 2.6288-0.12307 0.47785-0.16287 0.98291-0.06482 1.4665 0.09804 0.48361 0.34108 0.94535 0.72068 1.2606 0.42916 0.35641 1.0067 0.50424 1.5641 0.48198 0.55741-0.0223 1.0977-0.20274 1.6015-0.44232 0.01285-6e-3 0.02532-0.0129 0.03813-0.019 0.02936 1.2292 0.22508 2.4545 0.58798 3.6293 0.38733 1.2539 0.96059 2.4497 1.6953 3.537 0.73472-1.0874 1.308-2.2832 1.6953-3.537 0.3629-1.1748 0.5594-2.4001 0.58874-3.6293 0.01257 6e-3 0.02476 0.0131 0.03737 0.019 0.50379 0.23958 1.0449 0.42008 1.6023 0.44232 0.55741 0.0223 1.1342-0.12557 1.5634-0.48198 0.3796-0.31526 0.62264-0.777 0.72068-1.2606 0.09804-0.48361 0.05824-0.98867-0.06482-1.4665-0.24613-0.95571-0.79995-1.7982-1.3331-2.6288l-3.9794-6.1994 0.75347-0.70008 2.0004 3.1374c0.12849 0.20151 0.25916 0.40378 0.4202 0.58036 0.16105 0.17658 0.35284 0.32748 0.57044 0.42631 0.2176 0.0988 0.46043 0.14378 0.69856 0.12354 0.23814-0.0202 0.47051-0.10562 0.66424-0.24556 0.35223 1.1386 1.0002 2.184 1.8631 3.0062 1.1497 1.0955 2.6804 1.7834 4.2631 1.9142l-0.62687-1.086 0.62764 1.086c0.6781-1.436 0.84751-3.1055 0.47359-4.6489-0.28064-1.1584-0.86168-2.2417-1.6717-3.1161 0.21806-0.0978 0.40793-0.25689 0.54451-0.453 0.1366-0.19611 0.2193-0.42868 0.24251-0.66653 0.02323-0.23787-0.01148-0.47919-0.08389-0.70695-0.0724-0.22777-0.18258-0.4423-0.29285-0.65434l-1.7167-3.3014 0.98302-0.302 3.3792 6.5456c0.45269 0.87695 0.9053 1.7784 1.6099 2.4694 0.3523 0.34551 0.76989 0.63242 1.2377 0.78931 0.46784 0.1569 0.9892 0.17725 1.452 6e-3 0.52323-0.19346 0.94018-0.61958 1.1996-1.1134 0.25944-0.49386 0.37275-1.0523 0.41715-1.6084 0.0012-0.0142 0.0019-0.0285 3e-3 -0.0427 1.0792 0.58916 2.2383 1.0325 3.4371 1.3056 1.2795 0.2915 2.6017 0.39307 3.9107 0.30047v-7.8e-4c-0.57434-1.18-1.3232-2.2742-2.2154-3.2366-0.83596-0.90168-1.7993-1.6845-2.8492-2.3245 0.01156-8e-3 0.0236-0.0149 0.03508-0.0229 0.45938-0.3165 0.88638-0.69444 1.1844-1.166 0.29798-0.47161 0.45861-1.0456 0.36453-1.5954-0.08322-0.48637-0.36156-0.9278-0.73135-1.2545-0.36979-0.32671-0.82719-0.5441-1.3026-0.67644-0.95073-0.26471-1.9572-0.20659-2.943-0.16016l-7.3585 0.34623-0.22955-1.0021 3.717-0.16397c0.23876-0.0105 0.4796-0.0228 0.71305-0.074 0.23345-0.0512 0.45994-0.14161 0.65433-0.28064 0.19438-0.13904 0.35451-0.32664 0.45605-0.54299 0.10155-0.21634 0.14406-0.46005 0.11973-0.6978 1.1622 0.26429 2.3913 0.22556 3.5348-0.11058 1.5236-0.44788 2.8849-1.4295 3.7895-2.7348l-1.616-7.8e-4h1.616c-0.90457-1.3053-2.2659-2.2869-3.7895-2.7348-1.1435-0.33615-2.3733-0.37486-3.5355-0.11058 0.02433-0.23775-0.01742-0.48146-0.11897-0.6978-0.10154-0.21635-0.26166-0.40395-0.45605-0.54299-0.19439-0.13903-0.42164-0.23023-0.6551-0.2814-0.23345-0.0512-0.47353-0.0627-0.71228-0.0732l-3.7178-0.16472 0.23031-1.0021 7.3578 0.34699c0.9858 0.0464 1.993 0.10456 2.9437-0.16015 0.47536-0.13234 0.93277-0.35049 1.3026-0.6772 0.3698-0.32672 0.64813-0.76814 0.73135-1.2545 0.09408-0.54986-0.06732-1.1238-0.36529-1.5954-0.29798-0.47161-0.72421-0.84879-1.1836-1.1653-0.01171-8e-3 -0.02409-0.0156-0.03585-0.0237 1.0498-0.64002 2.0132-1.422 2.8492-2.3237 0.89222-0.96237 1.6418-2.0574 2.2162-3.2373-1.3091-0.0926-2.6312 9e-3 -3.9107 0.30047-1.1989 0.27312-2.3587 0.71567-3.4379 1.3048-0.0012-0.0139-0.0011-0.028-0.0023-0.0419-0.04441-0.55609-0.15847-1.1153-0.41792-1.6091-0.25943-0.49385-0.67561-0.91921-1.1988-1.1127-0.46282-0.17112-0.9842-0.15077-1.452 6e-3 -0.46784 0.15689-0.88544 0.44381-1.2377 0.78931-0.7046 0.69101-1.158 1.5924-1.6107 2.4694l-3.3784 6.5456-0.98302-0.30276 1.7167-3.3006c0.11027-0.21204 0.21968-0.42657 0.29208-0.65433 0.0724-0.22776 0.10786-0.46909 0.08465-0.70695-0.02319-0.23787-0.10592-0.47042-0.24251-0.66653-0.13658-0.19612-0.32722-0.3552-0.54528-0.453 0.80998-0.87437 1.3918-1.9577 1.6724-3.1161 0.37392-1.5434 0.20451-3.2129-0.47359-4.6489l-0.98912 1.7121 0.98836-1.7128c-1.5827 0.13075-3.1134 0.81865-4.2631 1.9142-0.86286 0.82223-1.5109 1.8676-1.8631 3.0062-0.19373-0.13994-0.42611-0.22533-0.66424-0.24556-0.23813-0.0202-0.48096 0.0247-0.69856 0.12354-0.2176 0.0988-0.4094 0.24973-0.57044 0.42631s-0.29172 0.37885-0.4202 0.58036l-2.0011 3.1374-0.75271-0.70009 3.9794-6.1994c0.53311-0.83051 1.0869-1.673 1.3331-2.6288 0.12307-0.47785 0.16287-0.98291 0.06483-1.4665-0.09805-0.48361-0.34108-0.94535-0.72068-1.2606-0.42915-0.35641-1.0067-0.50424-1.5641-0.48198-0.55741 0.0223-1.0977 0.20274-1.6015 0.44232-0.01285 6e-3 -0.02532 0.0129-0.03813 0.0191-0.02936-1.2292-0.22508-2.4545-0.58798-3.6293-0.38733-1.2539-0.96059-2.4497-1.6953-3.537zm0 3.1344c0.44236 0.66388 0.78074 1.3972 0.9998 2.1643 0.2284 0.79983 0.32253 1.6361 0.28598 2.4671-0.47306 0.33573-0.91002 0.72272-1.2858 1.1645-0.37577-0.44181-0.81272-0.82879-1.2858-1.1645-0.03655-0.83095 0.05758-1.6672 0.28598-2.4671 0.21906-0.7671 0.55744-1.5005 0.9998-2.1643zm-3.5348 5.3109c0.25524 5e-3 0.50603 0.0839 0.72983 0.20667 0.44761 0.24561 0.7798 0.65332 1.0944 1.0555 0.5918 0.75659 1.1623 1.5296 1.7106 2.3184 0.54822-0.78874 1.1188-1.5618 1.7106-2.3184 0.31456-0.40215 0.64675-0.80986 1.0944-1.0555 0.2238-0.1228 0.47459-0.2021 0.72983-0.20667 0.25524-5e-3 0.51498 0.069 0.71763 0.22421 0.18097 0.13864 0.31098 0.33783 0.38208 0.55443 0.07108 0.2166 0.08504 0.45 0.05872 0.67645-0.05266 0.45288-0.2606 0.87077-0.4713 1.2751-1.2105 2.323-2.6248 4.5395-4.2219 6.6158-1.597-2.0763-3.0114-4.2928-4.2219-6.6158-0.2107-0.40433-0.41864-0.82222-0.4713-1.2751-0.02632-0.22645-0.01234-0.45985 0.05872-0.67645 0.0711-0.2166 0.2011-0.41579 0.38207-0.55443 0.20265-0.15524 0.46239-0.22877 0.71763-0.22421zm-6.9139 4.8533c0.54602-0.0198 1.0969 0.11902 1.568 0.3958 0.59212 0.34788 1.0526 0.91442 1.2728 1.5649-0.31857-0.22638-0.68379-0.38659-1.0661-0.46749-0.30654-0.0649-0.62388-0.0786-0.93498-0.0412l-7.81e-4 -7.8e-4 -7.81e-4 7.8e-4c-0.18808 0.25081-0.33449 0.53244-0.43164 0.8305-0.12111 0.37157-0.16565 0.76934-0.12888 1.1584-0.45323-0.51595-0.71317-1.1992-0.71839-1.886-0.0041-0.54613 0.15087-1.0921 0.44079-1.555zm20.897 0c0.29015 0.46297 0.4457 1.0094 0.44156 1.5558-0.0052 0.68673-0.26592 1.3685-0.71915 1.8844 0.03678-0.38909-7e-3 -0.78533-0.12812-1.1569-0.09715-0.29805-0.24358-0.57969-0.43164-0.8305v-7.8e-4h-7.42e-4c-0.31133-0.0375-0.62894-0.0237-0.93574 0.0412-0.38235 0.0809-0.74834 0.24111-1.0669 0.46749 0.22021-0.65048 0.68146-1.217 1.2736-1.5649 0.47087-0.27665 1.0214-0.41544 1.5672-0.3958zm-19.595 2.2536c0.58644 0.10082 1.1454 0.35803 1.6038 0.73745 0.45124 0.37352 0.80449 0.8647 1.0143 1.4116 0.20444-0.35093 0.4898-0.65438 0.82744-0.88007 0.33839-0.22619 0.72836-0.37415 1.1317-0.42859 0.031 0.65961-0.07242 1.3255-0.302 1.9447-0.29812 0.804-0.81023 1.5269-1.4696 2.0751l0.50562 0.87549c0.04897-0.66056 0.44622-1.2857 1.0234-1.6107 0.51154-0.28795 1.1512-0.33689 1.7006-0.13041-0.55077-0.0376-1.1131 0.12716-1.5565 0.45605-0.53126 0.39407-0.8818 1.0226-0.93879 1.6816-0.59921-0.28015-1.3187-0.29123-1.9256-0.0282-0.50652 0.21954-0.93084 0.62452-1.1737 1.1203 0.09593-0.57912 0.45805-1.1088 0.96319-1.4078 0.57-0.33742 1.31-0.36871 1.9066-0.0808l-0.50486-0.87549c-0.80445 0.2969-1.6866 0.3787-2.5319 0.23489-0.65098-0.11075-1.2799-0.35411-1.8356-0.71076 0.24883-0.32211 0.57218-0.58572 0.93726-0.76568 0.36428-0.17956 0.76984-0.27524 1.176-0.27683-0.36874-0.45514-0.61748-1.0064-0.71534-1.584-0.0994-0.58669-0.04195-1.1996 0.16396-1.7578zm18.294 0c0.20612 0.55847 0.26341 1.1709 0.16396 1.7578-0.09785 0.57754-0.34659 1.1296-0.71534 1.5847 0.40613 2e-3 0.81168 0.0965 1.176 0.27607 0.36508 0.17996 0.68767 0.44357 0.9365 0.76567-0.55574 0.35665-1.1839 0.60002-1.8349 0.71076-0.84534 0.14382-1.7275 0.062-2.5319-0.23488-0.65934-0.54823-1.1714-1.2711-1.4696-2.0751-0.22958-0.61914-0.333-1.2851-0.302-1.9447 0.40337 0.0544 0.79334 0.2024 1.1317 0.42859 0.33765 0.22569 0.62301 0.52914 0.82744 0.88007 0.2098-0.54692 0.56305-1.0381 1.0143-1.4116 0.45838-0.37942 1.0174-0.63663 1.6038-0.73745zm-26.371 0.72068c0.11358-8e-3 0.22856 2.5e-4 0.34013 0.0236 0.22312 0.0467 0.43249 0.15149 0.61544 0.28751 0.36588 0.27205 0.62381 0.66092 0.86863 1.0456 1.4065 2.2098 2.619 4.543 3.6186 6.9643-2.5966 0.34492-5.2235 0.46093-7.8405 0.34775-0.45551-0.0197-0.92139-0.048-1.3399-0.22878-0.20926-0.0904-0.40466-0.21987-0.55671-0.3897-0.15203-0.16988-0.25945-0.38177-0.28903-0.60781-0.03311-0.25313 0.03315-0.51488 0.16472-0.73364 0.13158-0.21876 0.3255-0.39609 0.54375-0.5285 0.4365-0.26484 0.95563-0.34887 1.4612-0.42021 0.95112-0.13422 1.9065-0.24142 2.8636-0.32182-0.40896-0.86915-0.79376-1.7502-1.1531-2.641-0.19099-0.47349-0.37793-0.96524-0.36682-1.4757 0.0055-0.25522 0.06242-0.51184 0.18608-0.73516 0.12366-0.22333 0.31713-0.41156 0.5529-0.50944 0.10527-0.0437 0.21739-0.0687 0.33098-0.077zm34.278 0c0.1708-0.012 0.3439 0.0115 0.50181 0.077 0.23577 0.0979 0.42923 0.28611 0.5529 0.50943 0.12367 0.22333 0.18052 0.47995 0.18608 0.73517 0.01109 0.51044-0.17583 1.0022-0.36682 1.4757-0.35933 0.89082-0.74412 1.7718-1.1531 2.641 0.95718 0.0804 1.9125 0.18761 2.8636 0.32183 0.50555 0.0713 1.0247 0.15536 1.4612 0.4202 0.21825 0.13242 0.41217 0.30974 0.54375 0.5285 0.13157 0.21876 0.19784 0.48052 0.16472 0.73364-0.02956 0.22604-0.137 0.43871-0.28903 0.60858-0.15205 0.16985-0.34744 0.2985-0.55671 0.38893-0.41854 0.18084-0.88442 0.20909-1.3399 0.22879-2.617 0.11317-5.2439-3e-3 -7.8405-0.34776 0.9996-2.4212 2.2121-4.7545 3.6186-6.9643 0.24481-0.38464 0.50274-0.77351 0.86863-1.0456 0.18295-0.13601 0.39232-0.24074 0.61544-0.28751 0.05579-0.0117 0.11237-0.0196 0.1693-0.0236zm-40.931 0.97691c0.59834 8e-3 1.1958 0.0864 1.7761 0.23184 0.80688 0.20211 1.5781 0.53818 2.2795 0.98531 0.05423 0.57754 0.17057 1.1498 0.36529 1.6961-0.5705 0.10452-1.1238 0.28974-1.6511 0.53155-0.73789-0.38382-1.415-0.88406-1.9935-1.4818-0.5548-0.57326-1.0205-1.2327-1.3742-1.9477 0.19903-0.0128 0.39845-0.018 0.5979-0.0153zm47.754 0c0.19944-3e-3 0.39887 2e-3 0.5979 0.0153-0.35376 0.71503-0.81945 1.3752-1.3742 1.9485-0.57847 0.59772-1.2556 1.0972-1.9935 1.481-0.52728-0.24181-1.0806-0.42702-1.6511-0.53154 0.19473-0.54634 0.31107-1.1178 0.3653-1.6953 0.70134-0.44713 1.4726-0.78396 2.2795-0.98607 0.58039-0.14538 1.1778-0.22363 1.7761-0.23184zm-20.121 2.172c0.3665-0.0108 0.73652 0.0755 1.0562 0.25548 0.57721 0.32492 0.97446 0.9501 1.0234 1.6107 0.59655-0.28787 1.3366-0.25583 1.9066 0.0816 0.50514 0.29903 0.86726 0.82792 0.96319 1.407-0.24284-0.49578-0.66639-0.89999-1.1729-1.1195-0.6069-0.26305-1.3264-0.25268-1.9256 0.0275-0.05699-0.659-0.40753-1.2875-0.93878-1.6816-0.44339-0.32889-1.0057-0.49363-1.5565-0.45604 0.20606-0.0774 0.42452-0.11861 0.64442-0.12507zm-7.0558 1.4406c0.05729-3e-3 0.11505-2e-3 0.17235 2e-3 0.22922 0.0186 0.45415 0.1068 0.62764 0.25776 0.17349 0.15097 0.29027 0.36095 0.34242 0.58494 0.05215 0.22398 0.04007 0.45773 0.02364 0.68712l-0.33784 4.7214-4.257-2.0682c-0.20686-0.10049-0.41549-0.2074-0.5834-0.36454-0.16791-0.15714-0.2908-0.36377-0.33479-0.5895s-0.0085-0.46405 0.08999-0.67187 0.2558-0.38493 0.43546-0.5285c0.2794-0.22326 0.61763-0.37229 0.97082-0.42859s0.72049-0.0193 1.0555 0.106c0.05895-0.35276 0.21086-0.68928 0.43622-0.967 0.22536-0.27772 0.52337-0.49578 0.85642-0.62611 0.16062-0.0629 0.33071-0.10568 0.50257-0.11516zm6.5997 0c0.17186 9e-3 0.34195 0.0523 0.50257 0.11516 0.33305 0.13034 0.63107 0.3484 0.85642 0.62611 0.22536 0.27772 0.37727 0.61425 0.43622 0.96701 0.33497-0.12533 0.70227-0.16155 1.0555-0.10525 0.35318 0.0563 0.69142 0.20534 0.97082 0.4286 0.17966 0.14356 0.3362 0.31992 0.43469 0.52773 0.09848 0.20783 0.13474 0.44691 0.09075 0.67264-0.04399 0.22573-0.16764 0.43159-0.33555 0.58874s-0.37578 0.2633-0.58264 0.36377l-4.2577 2.0682-0.33784-4.7206c-0.0164-0.22939-0.02776-0.46313 0.0244-0.68712 0.05214-0.22398 0.16892-0.43397 0.34242-0.58493s0.39841-0.23914 0.62764-0.25777c0.0573-5e-3 0.11507-5e-3 0.17235-2e-3zm-3.2999 1.4757 1.2667 4.4682a4.7664 4.7664 0 0 0-1.266-0.17617 4.7664 4.7664 0 0 0-1.266 0.17159zm-7.8443 4.5292 4.4995 1.1363a4.7664 4.7664 0 0 0-1.2614 2.1956zm15.689 0-3.2343 3.3281a4.7664 4.7664 0 0 0-1.2667-2.191zm-23.123 0.98454c0.58674 0.30296 1.1122 0.72553 1.5336 1.2339 0.54722 0.66017 0.91723 1.4649 1.0623 2.31h1.0105c-0.54758-0.3727-0.89034-1.0299-0.88312-1.6923 0.0064-0.58698 0.28389-1.1648 0.73746-1.5374-0.30793 0.4582-0.44596 1.0272-0.38283 1.5756 0.07565 0.65712 0.44462 1.2753 0.98683 1.6541-0.54222 0.37885-0.91119 0.99701-0.98683 1.6541-0.06313 0.54844 0.0749 1.1174 0.38283 1.5756-0.45357-0.37264-0.73029-0.95047-0.73669-1.5374-0.0072-0.66235 0.33553-1.3188 0.88311-1.6915l-1.0112-7.8e-4c-0.14511 0.84512-0.51511 1.6506-1.0623 2.3108-0.4214 0.50839-0.94613 0.93096-1.5329 1.2339-0.15453-0.37655-0.22192-0.78888-0.19523-1.195 0.02663-0.40526 0.14683-0.80363 0.34852-1.1561-0.57854 0.0918-1.1805 0.0317-1.7296-0.17235-0.55802-0.20734-1.06-0.56341-1.4406-1.0212 0.38059-0.45774 0.88258-0.81305 1.4406-1.0204 0.5491-0.20402 1.1511-0.26488 1.7296-0.17311-0.20169-0.35251-0.32188-0.75087-0.34852-1.1561-0.02671-0.40615 0.03993-0.81772 0.19447-1.1943zm30.556 0c0.15453 0.37655 0.22192 0.78812 0.19523 1.1943-0.02663 0.40526-0.14683 0.80439-0.34852 1.1569 0.57854-0.0918 1.1805-0.0317 1.7296 0.17235 0.55785 0.20728 1.06 0.56285 1.4406 1.0204v7.8e-4c-0.38055 0.45753-0.88275 0.81311-1.4406 1.0204-0.5491 0.20403-1.1511 0.26413-1.7296 0.17235 0.20169 0.35251 0.32189 0.75164 0.34852 1.1569 0.02671 0.40615-0.0407 0.81771-0.19523 1.1943-0.58674-0.30296-1.1115-0.72553-1.5329-1.2339-0.54722-0.66018-0.91722-1.4649-1.0623-2.31h-1.0112c0.54758 0.37269 0.89034 1.0292 0.88312 1.6915-0.0064 0.58698-0.28312 1.1656-0.73669 1.5382 0.30793-0.45819 0.44597-1.0279 0.38284-1.5763-0.07565-0.65712-0.44462-1.2745-0.98683-1.6534h-1.0234c0.27602 0.22743 0.49141 0.52698 0.61925 0.861 0.12783 0.33402 0.16804 0.7011 0.11439 1.0547-0.03452 0.22737-0.10874 0.45216-0.23946 0.64137-0.13074 0.1892-0.32016 0.33933-0.53765 0.4141-0.21748 0.0748-0.45716 0.0714-0.67721 5e-3 -0.22005-0.0668-0.4166-0.19444-0.60705-0.32335l-3.9199-2.6532 3.9191-2.6532c0.19046-0.12889 0.38701-0.25573 0.60705-0.32259 0.22005-0.0668 0.46048-0.071 0.67797 4e-3 0.21748 0.0748 0.40615 0.22566 0.53689 0.41487 0.13073 0.1892 0.20573 0.41398 0.24022 0.64136 0.05365 0.3536 0.01343 0.72068-0.11439 1.0547-0.12784 0.33402-0.34323 0.63356-0.61925 0.86099h1.0234c0.54221-0.37885 0.91119-0.99624 0.98683-1.6534 0.06313-0.54843-0.07566-1.1181-0.3836-1.5763 0.45356 0.37264 0.73106 0.95123 0.73746 1.5382 0.0072 0.66234-0.33554 1.3188-0.88312 1.6915h1.0112c0.1451-0.84511 0.51511-1.6498 1.0623-2.31 0.42141-0.50839 0.94613-0.93096 1.5329-1.2339zm-25.086 0.51706c0.11475-3e-5 0.22934 0.0177 0.33937 0.0511 0.22005 0.0668 0.4166 0.19444 0.60704 0.32335l3.9199 2.6532-3.9191 2.6532c-0.19046 0.1289-0.38776 0.25498-0.60781 0.32183-0.22005 0.0668-0.45973 0.071-0.67721-4e-3 -0.21748-0.0748-0.4069-0.22566-0.53765-0.41486-0.13073-0.1892-0.20496-0.41323-0.23946-0.6406-0.05365-0.3536-0.01343-0.72069 0.11439-1.0547 0.12783-0.33402 0.34323-0.63433 0.61925-0.86176-0.27602-0.22744-0.49141-0.52774-0.61925-0.86177-0.12783-0.33402-0.16804-0.7011-0.11439-1.0547 0.03452-0.22738 0.10873-0.4514 0.23946-0.6406 0.13074-0.1892 0.32017-0.3401 0.53765-0.41487 0.10874-0.0374 0.2231-0.0549 0.33784-0.0549zm9.8096 1.0753a1.9523 1.9523 0 0 1 1.9523 1.9523 1.9523 1.9523 0 0 1-1.9523 1.9523 1.9523 1.9523 0 0 1-1.9523-1.9523 1.9523 1.9523 0 0 1 1.9523-1.9523zm-18.291 0.41715c0.17162 3e-3 0.34336 0.0213 0.51172 0.0549-0.35534 0.1627-0.67679 0.39874-0.93802 0.68941-0.20978 0.23343-0.3809 0.50143-0.50409 0.79008 0.1232 0.28864 0.29432 0.55665 0.50409 0.79007 0.26124 0.29068 0.58268 0.52748 0.93802 0.69018-0.67344 0.13453-1.3946 0.0185-1.992-0.3203-0.47524-0.26959-0.87053-0.67719-1.1264-1.16h-7.42e-4c0.25587-0.48277 0.65192-0.89036 1.1272-1.16 0.448-0.25414 0.96539-0.38283 1.4802-0.37445zm36.579 0c0.51496-8e-3 1.033 0.12031 1.481 0.37445 0.47505 0.26948 0.87052 0.67743 1.1264 1.16v7.8e-4c-0.25588 0.48251-0.65134 0.8897-1.1264 1.1592-0.59733 0.33885-1.3185 0.45484-1.992 0.3203 0.35534-0.1627 0.67679-0.3995 0.93802-0.69017 0.20955-0.23317 0.38017-0.50103 0.50333-0.78931v-7.8e-4c-0.12317-0.28829-0.29378-0.55691-0.50333-0.79008-0.26124-0.29067-0.58269-0.52747-0.93802-0.69017 0.16836-0.0336 0.3393-0.0514 0.51096-0.0541zm-13.681 2.7332 3.2358 3.3304-4.4979-1.1363a4.7664 4.7664 0 0 0 1.2621-2.1941zm-9.217 7.8e-4a4.7664 4.7664 0 0 0 1.2667 2.1925l-4.5025 1.1371zm2.1376 3.081 0.33784 4.7206c0.0164 0.22939 0.02772 0.46314-0.0244 0.68712-0.05214 0.22399-0.16892 0.43397-0.34242 0.58494-0.1735 0.15096-0.39842 0.23914-0.62764 0.25776-0.22922 0.0186-0.46076-0.029-0.67492-0.11287-0.33305-0.13033-0.63107-0.34839-0.85642-0.62611-0.22536-0.27772-0.37727-0.61424-0.43622-0.967-0.33497 0.12533-0.70228 0.16231-1.0555 0.106-0.35319-0.0563-0.69142-0.20533-0.97082-0.42859-0.17966-0.14357-0.33697-0.32068-0.43546-0.5285-0.09848-0.20782-0.13398-0.44614-0.08999-0.67187 0.04399-0.22573 0.16688-0.43236 0.33479-0.5895 0.16791-0.15716 0.37653-0.2633 0.5834-0.36378zm4.9426 0 4.257 2.0682c0.20686 0.10049 0.41549 0.2074 0.5834 0.36454 0.1679 0.15715 0.2908 0.36301 0.33479 0.58874 0.04399 0.22573 0.0085 0.46481-0.08999 0.67263-0.0985 0.20782-0.2558 0.38417-0.43546 0.52774-0.2794 0.22326-0.61763 0.37229-0.97082 0.42859-0.35295 0.0563-0.71992 0.0199-1.0547-0.10524h-7.42e-4c-0.05904 0.35249-0.21102 0.68871-0.43622 0.96624-0.22536 0.27772-0.52337 0.49578-0.85642 0.62611-0.21416 0.0838-0.4457 0.13149-0.67492 0.11287-0.22922-0.0186-0.45414-0.1068-0.62764-0.25776-0.17349-0.15097-0.29027-0.36095-0.34242-0.58494-0.05215-0.22398-0.04005-0.45773-0.02364-0.68712zm-3.7376 0.30963a4.7664 4.7664 0 0 0 1.2667 0.17693 4.7664 4.7664 0 0 0 1.2637-0.17159l-1.2644 4.4621zm-16.393 1.8219c1.9645 1e-3 3.9293 0.13182 5.8768 0.39047-0.9996 2.4212-2.2121 4.7545-3.6186 6.9643-0.24481 0.38463-0.50275 0.7735-0.86863 1.0456-0.18295 0.13602-0.39232 0.24075-0.61544 0.28751-0.22313 0.0467-0.46056 0.0333-0.67111-0.0541-0.23577-0.0979-0.42923-0.28611-0.5529-0.50944-0.12366-0.22332-0.18053-0.47994-0.18608-0.73516-0.01113-0.51044 0.17583-1.0022 0.36682-1.4757 0.35932-0.89081 0.74412-1.771 1.1531-2.6402-0.95718-0.0804-1.9125-0.18837-2.8636-0.32259-0.50556-0.0713-1.0247-0.15461-1.4612-0.41945-0.21825-0.13242-0.41217-0.31049-0.54375-0.52926-0.13157-0.21875-0.19784-0.48051-0.16472-0.73364 0.02956-0.22604 0.137-0.43794 0.28903-0.60781 0.15205-0.16985 0.34745-0.2985 0.55671-0.38893 0.41854-0.18084 0.88442-0.20986 1.3399-0.22955 0.65425-0.0283 1.3089-0.0424 1.9638-0.0419zm35.317 0c0.65484-3.9e-4 1.3095 0.0137 1.9638 0.0419 0.45551 0.0197 0.92139 0.0487 1.3399 0.22955 0.20926 0.0904 0.40467 0.2191 0.55671 0.38893 0.15204 0.16987 0.25946 0.38177 0.28903 0.60781 0.03311 0.25313-0.03315 0.51488-0.16472 0.73364-0.13158 0.21876-0.3255 0.39684-0.54375 0.52926-0.4365 0.26484-0.95563 0.34811-1.4612 0.41945-0.95113 0.13422-1.9065 0.24219-2.8636 0.32259 0.40896 0.86914 0.79376 1.7494 1.1531 2.6402 0.19099 0.47349 0.37792 0.96524 0.36682 1.4757-0.0055 0.25522-0.06242 0.51184-0.18608 0.73516-0.12366 0.22333-0.31713 0.41156-0.5529 0.50944-0.21054 0.0874-0.44798 0.10087-0.67111 0.0541-0.22312-0.0467-0.43249-0.15149-0.61544-0.28751-0.36588-0.27205-0.62381-0.66091-0.86863-1.0456-1.4065-2.2098-2.619-4.5431-3.6186-6.9643 1.9475-0.2587 3.9122-0.38925 5.8768-0.39047zm-26.365 2.207c0.24284 0.49577 0.66715 0.90075 1.1737 1.1203 0.6069 0.26305 1.3264 0.25193 1.9256-0.0282 0.05699 0.659 0.40753 1.2875 0.93879 1.6816 0.44339 0.32889 1.0057 0.49363 1.5565 0.45605-0.5495 0.20648-1.1891 0.15754-1.7006-0.13041-0.57721-0.32492-0.97447-0.9501-1.0234-1.6107-0.59655 0.28787-1.3366 0.25659-1.9066-0.0808-0.50514-0.29902-0.86802-0.82868-0.96395-1.4078zm17.412 7.8e-4c-0.09593 0.57912-0.45881 1.108-0.96395 1.407-0.56979 0.33729-1.3093 0.36914-1.9058 0.0816h-7.81e-4c-0.04922 0.66028-0.44644 1.2851-1.0234 1.6099-0.51154 0.28795-1.1511 0.33689-1.7006 0.13041 0.55078 0.0376 1.1131-0.12716 1.5565-0.45605 0.53106-0.39392 0.88159-1.0221 0.93878-1.6808 0.59921 0.28015 1.3187 0.29053 1.9256 0.0274 0.50652-0.21954 0.93083-0.62375 1.1737-1.1195zm-16.619 2.0614c0.53551 0.015 1.069 0.11643 1.5718 0.30199 0.65935 0.54823 1.1715 1.2711 1.4696 2.0751 0.22958 0.61914 0.333 1.2851 0.302 1.9447-0.40337-0.0544-0.79334-0.2024-1.1317-0.42859-0.33765-0.22569-0.62301-0.52914-0.82744-0.88006-0.2098 0.54691-0.56305 1.0381-1.0143 1.4116-0.45838 0.37943-1.0174 0.63664-1.6038 0.73746-0.20592-0.55829-0.26337-1.1712-0.16396-1.7578 0.09786-0.57754 0.3466-1.1288 0.71534-1.584-0.40613-2e-3 -0.81168-0.0973-1.176-0.27683-0.36508-0.17996-0.68766-0.44357-0.9365-0.76567 0.55574-0.35666 1.1839-0.60001 1.8349-0.71076 0.317-0.0539 0.63884-0.0761 0.96014-0.0671zm15.826 7.8e-4c0.32131-9e-3 0.64314 0.0124 0.96014 0.0663 0.65098 0.11075 1.2791 0.35487 1.8349 0.71153-0.24883 0.3221-0.57142 0.58571-0.9365 0.76567-0.36428 0.17956-0.76984 0.27448-1.176 0.27607 0.36874 0.45515 0.61748 1.0072 0.71534 1.5847 0.09941 0.58669 0.04195 1.1988-0.16396 1.7571-0.58644-0.10082-1.1454-0.35803-1.6038-0.73746-0.45124-0.37351-0.80449-0.86469-1.0143-1.4116-0.20444 0.35093-0.4898 0.65437-0.82744 0.88007-0.33839 0.22619-0.72836 0.37414-1.1317 0.42859-0.031-0.65961 0.07242-1.3255 0.302-1.9447 0.29812-0.80399 0.81023-1.5269 1.4696-2.0751v7.8e-4c0.50278-0.18555 1.0363-0.28697 1.5718-0.30199zm-29.02 0.0198c0.52728 0.24181 1.0806 0.42626 1.6511 0.53078-0.19473 0.54634-0.31107 1.1185-0.36529 1.6961-0.70134 0.44712-1.4726 0.78395-2.2795 0.98607-0.77385 0.19384-1.5779 0.26698-2.374 0.21582 0.35376-0.71503 0.81944-1.3745 1.3742-1.9477 0.57847-0.59772 1.2556-1.0972 1.9935-1.481zm42.214 0c0.73789 0.38382 1.415 0.88329 1.9935 1.481 0.5548 0.57326 1.0205 1.2327 1.3742 1.9477-0.79611 0.0512-1.6002-0.0219-2.374-0.21582-0.80688-0.20212-1.5781-0.53895-2.2795-0.98607-0.05423-0.57755-0.17057-1.1498-0.3653-1.6961 0.5705-0.10452 1.1238-0.28897 1.6511-0.53078zm-21.107 2.9025c1.597 2.0763 3.0114 4.2928 4.2219 6.6157 0.2107 0.40434 0.41864 0.82222 0.4713 1.2751 0.02632 0.22645 0.01234 0.45984-0.05872 0.67645-0.07109 0.2166-0.2011 0.41579-0.38208 0.55442-0.20265 0.15525-0.46239 0.22877-0.71763 0.22421-0.25524-5e-3 -0.50602-0.0839-0.72983-0.20667-0.44761-0.2456-0.7798-0.65332-1.0944-1.0555-0.5918-0.75659-1.1623-1.5296-1.7106-2.3184-0.54822 0.78875-1.1188 1.5618-1.7106 2.3184-0.31456 0.40215-0.64676 0.80987-1.0944 1.0555-0.2238 0.1228-0.47459 0.2021-0.72983 0.20667-0.25524 5e-3 -0.51498-0.069-0.71763-0.22421-0.18097-0.13863-0.31098-0.33782-0.38207-0.55442-0.07107-0.21661-0.08504-0.45-0.05872-0.67645 0.05266-0.45289 0.2606-0.87077 0.4713-1.2751 1.2105-2.323 2.6248-4.5395 4.2219-6.6157zm-10.17 1.0524c-0.03678 0.38908 7e-3 0.78532 0.12812 1.1569 0.09715 0.29806 0.24434 0.58122 0.43241 0.83202l7.81e-4 -7.8e-4c0.31109 0.0374 0.62843 0.0237 0.93498-0.0412 0.38235-0.0809 0.74834-0.2411 1.0669-0.46748-0.22022 0.65048-0.68146 1.217-1.2736 1.5649-0.47109 0.27677-1.0219 0.41559-1.568 0.3958-0.2898-0.46278-0.44494-1.009-0.44079-1.555 0.0052-0.68673 0.26592-1.3692 0.71915-1.8852zm20.341 0c0.45323 0.51595 0.71317 1.1985 0.71839 1.8852 0.0041 0.54602-0.15099 1.0922-0.4408 1.555-0.54602 0.0198-1.0969-0.11903-1.5679-0.3958-0.59212-0.34789-1.0526-0.91442-1.2728-1.5649 0.31857 0.22638 0.6838 0.38658 1.0661 0.46748 0.30655 0.0649 0.62388 0.0786 0.93497 0.0412l7.81e-4 7.8e-4 7.41e-4 -7.8e-4c0.18807-0.25081 0.33449-0.53244 0.43164-0.83049 0.12111-0.37157 0.16566-0.76858 0.12888-1.1577zm-10.171 7.8085c0.37577 0.44181 0.81272 0.82879 1.2858 1.1645 0.03655 0.83094-0.05758 1.6672-0.28598 2.4671-0.21906 0.7671-0.55744 1.5004-0.9998 2.1643-0.44236-0.66388-0.78074-1.3972-0.9998-2.1643-0.2284-0.79983-0.32253-1.6361-0.28598-2.4671 0.47306-0.33574 0.91002-0.72273 1.2858-1.1645z"/>
		</symbol>
		<symbol id="treillis" viewBox="0 0 64 64">
			<path d="m31.033 1.166-1.1905 1.0112 1.1325 1.3331-2.1536 2.5357-1.1966-1.0944-1.0539 1.1523 1.2385 1.1325-1.3071 1.539 1.1905 1.0112 1.2698-1.4947 1.8623 1.7022-1.4398 1.2438-0.71229-1.0021-1.2728 0.90599 0.7977 1.1218-0.93269 0.80533 1.0211 1.1821 0.82058-0.70924 1.5641 2.1994-0.79999 0.12202 0.48731 3.2007-0.62611 0.16854 1.0456 3.8863-2.8347-1.513 1.7159-4.8709-1.4734-0.51935-1.6366 4.6467-0.11134-0.05949-0.68255-1.1821 1.1104-4.469-1.5161-0.37674-0.71992 2.8964-0.94108-1.6305 0.6345-3.7086-1.5397-0.26387-0.31725 1.8547-0.85032-1.4719 0.81219-2.8514-1.5024-0.42783-0.39733 1.3956-1.5199-2.6326-1.2858-0.66424-0.06711 1.4459 1.5199 2.6326-1.4078-0.35386-0.38055 1.5146 2.8758 0.7222 0.84956 1.4726-1.7647-0.6528-0.54146 1.4658 3.5287 1.3048 0.94184 1.6305-2.8682-0.82516-0.43241 1.5016 4.4255 1.2728 0.68254 1.1821-0.0039 0.12584-4.8427-0.90599-0.28674 1.5359 5.076 0.94946-0.10677 3.2114-2.8431-2.8484-0.4591 0.45757-2.5281-2.0225-0.50562 0.63221-1.1226-2.4549 1.0242-0.35538-0.51324-1.4757-1.1638 0.40495-0.57273-1.2515-1.4208 0.64899 0.51172 1.118-1.7975 0.62535-0.54299-2.464 1.9294-0.35233-0.27988-1.5367-1.9866 0.36225-0.36148-1.6389-1.5252 0.33708 0.35004 1.5832-3.2732 0.59713-0.58798-1.6473-1.4711 0.52545 0.50181 1.4063-1.4688 0.26844 0.28064 1.5359 1.7205-0.3142 1.1195 3.1329-1.5458 0.4896 0.47054 1.4886 1.6-0.50638 0.67949 1.902 1.4711-0.52544-0.65967-1.8471 2.4053-0.76186 0.35691 1.8684-1.224 0.11592 0.14871 1.5557 1.3704-0.13041 0.23108 1.211 1.5344-0.29361-0.20438-1.0654 2.6867-0.25471-0.29437 0.75347 3.0162 1.1782-0.16777 0.62688 3.8886 1.0379-2.7271 1.6984-3.3609-3.9214-1.1866 1.0158 3.2061 3.7407-0.10677 0.06711h-1.3651l-3.3151-3.1961-1.0844 1.1249 2.1483 2.0713h-1.8822l-2.8949-2.4038-0.99827 1.2011 1.4475 1.2019-1.6999 7.81e-4 -2.0629-2.1292-1.1218 1.0875 1.0097 1.0417h-3.0398l-1.2164 0.78092h-0.00156v7.81e-4h0.0015619l1.2164 0.78092h3.0398l-1.0097 1.0417 1.1218 1.0875 2.0637-2.1292h1.6991l-1.4475 1.2027 0.99827 1.2011 2.8949-2.4038h1.8822l-2.1483 2.0713 1.0844 1.1249 3.3151-3.1961h1.3651l0.10677 0.06711-3.2053 3.7407 1.1859 1.0158 3.3609-3.9214 2.7271 1.6984-3.8878 1.0379 0.16701 0.62611-3.0154 1.179 0.29437 0.75347-2.6875-0.25471 0.20438-1.0654-1.5344-0.29361-0.23108 1.2103-1.3704-0.12964-0.14795 1.555 1.224 0.11592-0.35767 1.8692-2.4053-0.76186 0.65967-1.8471-1.4711-0.52544-0.67873 1.902-1.6-0.50638-0.4713 1.4886 1.5458 0.48884-1.1188 3.1336-1.7212-0.31496-0.27988 1.5367 1.4688 0.26844-0.50257 1.4063 1.4711 0.52544 0.58798-1.6473 3.2732 0.59713-0.35004 1.5832 1.5252 0.33632 0.36148-1.6381 1.9866 0.36225 0.28064-1.5367-1.9294-0.35233 0.54299-2.464 1.7967 0.62535-0.51172 1.118 1.4215 0.64899 0.57196-1.2515 1.1638 0.40495 0.51324-1.4757-1.0242-0.35614 1.1226-2.4541 0.50562 0.63221 2.5281-2.0225 0.4591 0.45757 2.8431-2.8484 0.10677 3.2114-5.076 0.94946 0.28674 1.5359 4.8427-0.90599 0.0039 0.12583-0.68178 1.1821-4.4255 1.2728 0.43164 1.5016 2.8682-0.82516-0.94184 1.6305-3.5287 1.3048 0.54146 1.465 1.7647-0.65204-0.84956 1.4719-2.8758 0.72296 0.38131 1.5146 1.407-0.35386-1.5199 2.6326 0.06787 1.4452 1.285-0.66348 1.5199-2.6326 0.39733 1.3956 1.5024-0.42783-0.81219-2.8514 0.85032-1.4719 0.31725 1.8547 1.5397-0.26387-0.6345-3.7086 0.94108-1.6305 0.71992 2.8964 1.5161-0.37674-1.1104-4.469 0.68255-1.1821 0.11134-0.05949 1.6366 4.6467 1.4734-0.51935-1.7159-4.8709 2.8347-1.513-1.0456 3.8863 0.62611 0.16854-0.48731 3.2007 0.79999 0.12202-1.5641 2.1994-0.82058-0.70924-1.0211 1.1821 0.93269 0.80533-0.7977 1.1218 1.2728 0.90599 0.71229-1.0021 1.4398 1.2438-1.8623 1.7022-1.2698-1.4947-1.1905 1.0112 1.3071 1.539-1.2385 1.1325 1.0539 1.1523 1.1966-1.0944 2.1536 2.5357-1.1325 1.3331 1.1905 1.0112 0.967-1.1378 0.96624 1.1378 1.1905-1.0112-1.1325-1.3331 2.1536-2.5357 1.1966 1.0944 1.0539-1.1523-1.2385-1.1325 1.3071-1.539-1.1905-1.0112-1.2698 1.4947-1.8623-1.7022 1.4398-1.2438 0.71228 1.0021 1.2728-0.90599-0.7977-1.1218 0.93269-0.80533-1.0211-1.1821-0.82058 0.70924-1.5641-2.1994 0.79999-0.12202-0.48731-3.2007 0.62611-0.16854-1.0456-3.8863 2.8347 1.513-1.7159 4.8709 1.4734 0.51935 1.6366-4.6467 0.11134 0.05949 0.68255 1.1821-1.1104 4.469 1.5161 0.37674 0.71992-2.8964 0.94108 1.6305-0.6345 3.7086 1.5397 0.26387 0.31725-1.8547 0.85032 1.4719-0.81219 2.8514 1.5024 0.42783 0.39733-1.3956 1.5199 2.6326 1.2858 0.66424-12.164-21.067c3.05e-4 -1.75e-4 3.91e-4 -7.81e-4 7.81e-4 -7.81e-4l12.163 21.068 0.06787-1.4459-1.5199-2.6326 1.407 0.35386 0.38055-1.5153-2.8751-0.7222-0.84956-1.4726 1.7647 0.65281 0.54146-1.465-3.5294-1.3048-0.94108-1.6305 2.8682 0.82516 0.43164-1.5016-4.4255-1.2728-0.68255-1.1821 0.0046-0.1266 4.8419 0.90599 0.2875-1.5352-5.0768-0.94946 0.10753-3.2114 2.8423 2.8484 0.4591-0.45757 2.5289 2.0217 0.50562-0.63145 1.1226 2.4541-1.025 0.35614 0.51325 1.4757 1.1638-0.40572 0.57273 1.2522 1.4208-0.64975-0.51172-1.1172 1.7975-0.62535 0.54299 2.464-1.9294 0.35233 0.28064 1.5367 1.9866-0.36301 0.36148 1.6389 1.5245-0.33632-0.34928-1.5832 3.2724-0.5979 0.58874 1.6473 1.4711-0.52468-0.50257-1.407 1.4688-0.26768-0.28064-1.5367-1.7205 0.3142-1.1195-3.1329 1.5466-0.48884-0.4713-1.4894-1.6 0.50638-0.6795-1.9012-1.4703 0.52545 0.65891 1.8471-2.4053 0.76186-0.35691-1.8692 1.224-0.11592-0.14795-1.555-1.3704 0.12965-0.23108-1.2103-1.5344 0.29361 0.20362 1.0654-2.6867 0.25471 0.29437-0.75423-3.0154-1.1783 0.16701-0.62611-3.8886-1.0379 2.7279-1.6984 3.3601 3.9214 1.1866-1.0166-3.2061-3.7407 0.10753-0.06635h1.3651l3.3151 3.1961 1.0837-1.1249-2.1483-2.0713h1.8829l2.8942 2.4038 0.99827-1.2019-1.4475-1.2019h1.6999l2.0637 2.1285 1.1218-1.0867-1.0105-1.0417h3.0398l1.2179-0.78169-1.2179-0.78092h-3.0398l1.0097-1.0425-1.1211-1.0867-2.0637 2.1292-1.6999-7.81e-4 1.4475-1.2019-0.99827-1.2019-2.8942 2.4038-1.8829 7.81e-4 2.1483-2.072-1.0844-1.1241-3.3151 3.1961-1.3643-7.81e-4 -0.10753-0.06635 3.2061-3.7407-1.1866-1.0166-3.3601 3.9214-2.7279-1.6984 3.8886-1.0372-0.16701-0.62688 3.0154-1.1782-0.29437-0.75347 2.6867 0.25471-0.20362 1.0654 1.5336 0.29285 0.23184-1.2103 1.3697 0.13041 0.14871-1.5557-1.224-0.11592 0.35691-1.8684 2.4053 0.76186-0.65967 1.8463 1.4711 0.52545 0.6795-1.9012 1.6 0.50638 0.47054-1.4886-1.5458-0.4896 1.1195-3.1329 1.7205 0.3142 0.28064-1.5367-1.4688-0.26844 0.50181-1.4055-1.4703-0.52545-0.58874 1.6473-3.2724-0.59713 0.34928-1.5832-1.5252-0.33708-0.36148 1.6389-1.9859-0.36225-0.28064 1.5367 1.9294 0.35233-0.54299 2.4633-1.7975-0.62459 0.51172-1.118-1.4208-0.64899-0.57273 1.2515-1.1638-0.40495-0.51325 1.4749 1.025 0.35614-1.1233 2.4541-0.50562-0.63145-2.5281 2.0225-0.4591-0.45833-2.8431 2.8492-0.10677-3.2114 5.076-0.94946-0.28674-1.5359-4.8419 0.90599-0.0046-0.12583 0.68255-1.1821 4.4255-1.2736-0.43164-1.5008-2.8682 0.8244 0.94108-1.6297 3.5294-1.3048-0.54146-1.4658-1.7647 0.6528 0.8488-1.4726 2.8758-0.7222-0.38055-1.5153-1.407 0.35386 1.5199-2.6326-0.06787-1.4452-1.2858 0.66424-1.5199 2.6326-0.39733-1.3956-1.5024 0.42783 0.81219 2.8514-0.85032 1.4719-0.31725-1.8547-1.5397 0.26387 0.6345 3.7086-0.94108 1.6305-0.71992-2.8964-1.5161 0.37674 1.1104 4.469-0.68255 1.1821-0.11134 0.05949-1.6366-4.6467-1.4734 0.51935 1.7159 4.8709-2.8347 1.513 1.0456-3.8863-0.62611-0.16854 0.48731-3.2007-0.79999-0.12202 1.5641-2.1994 0.82058 0.70924 1.0211-1.1821-0.93269-0.80533 0.7977-1.1218-1.2728-0.90599-0.71229 1.0021-1.4398-1.2438 1.8623-1.7022 1.2698 1.4947 1.1905-1.0112-1.3071-1.539 1.2385-1.1325-1.0539-1.1523-1.1966 1.0944-2.1536-2.5357 1.1325-1.3331-1.1905-1.0112-0.967 1.1378zm0.96624 3.5508 2.0255 2.384-2.0255 1.8524-2.0248-1.8524zm0 6.3259 1.7052 1.4734-1.7052 2.3977-1.7045-2.3977zm-20.55 6.7538 0.5918 2.6806-2.6166 0.82744-1.0524-2.946zm41.102 0 3.0772 0.56129-1.0524 2.946-2.6166-0.82744zm-36.572 2.9849 1.224 2.676-2.9292 0.27683-0.42326-2.2124zm32.042 0 2.1285 0.73975-0.42326 2.2131-2.9292-0.27759zm-20.107 2.58 4.0854 2.1803 4.0861-2.1803-2.6837 4.6482c-0.43976-0.15565-0.91025-0.2448-1.4017-0.2448-0.49136 0-0.96196 0.08921-1.4017 0.2448zm-1.3521 0.78092 2.6844 4.6505c-0.71593 0.61585-1.2249 1.4637-1.4063 2.4259h-5.3643l3.9313-2.4473zm10.877 0 0.15405 4.6284 3.9313 2.448h-5.3643c-0.18131-0.96218-0.69051-1.8101-1.4063-2.4259zm-5.4383 5.1843c1.4857 0 2.673 1.1873 2.673 2.673 0 1.4857-1.1873 2.6738-2.673 2.6738-1.4857 0-2.6738-1.1881-2.6738-2.6738 0-1.4857 1.1881-2.673 2.6738-2.673zm-16.165 2.673h11.929v7.81e-4zm6.6401 0.78092 5.3643 7.81e-4c0.18149 0.96194 0.69052 1.81 1.4063 2.4259l-2.6844 4.6505-0.15481-4.6284zm19.048 0-3.9306 2.448-0.15481 4.6291-2.6844-4.6505c0.71536-0.61583 1.2241-1.4641 1.4055-2.4259zm-10.925 3.2099c0.43974 0.15565 0.91034 0.2448 1.4017 0.2448 0.49146 0 0.96194-0.0891 1.4017-0.2448l2.6837 4.6482-4.0854-2.1803-4.0861 2.1803zm19.127 4.2745 0.42402 2.2131-2.1285 0.73974-1.224-2.6753zm-35.451 7.81e-4 2.9285 0.27759-1.224 2.6753-2.1285-0.73975zm-4.8503 2.4297 2.6173 0.82821-0.59256 2.6799-3.0764-0.56129zm45.152 0 1.0517 2.9452-3.0772 0.56205-0.59103-2.6799zm-22.576 6.3908 1.7045 2.3977-1.7045 1.4734-1.7052-1.4734zm0 5.9607 2.0248 1.8524-2.0248 2.384-2.0255-2.384z"/>
		</symbol>
		<symbol id="classique" viewBox="0 0 64 64">
			<path d="m31.982 7.7877e-6a1.2564 1.2564 0 0 0-1.2383 1.2743v5.745l-2.3818-2.4014a1.2564 1.2564 0 0 0-0.89971-0.38443 1.2564 1.2564 0 0 0-0.88334 2.1544l4.1648 4.1975v5.2264l-6.9114-6.9637a1.2564 1.2564 0 0 0-0.8997-0.38442 1.2564 1.2564 0 0 0-0.88334 2.1528l8.6944 8.7615v7.1404c-1.113 0.25695-2.101 0.84612-2.8562 1.6571l-6.1883-3.5743-3.2406-11.91a1.2564 1.2564 0 0 0-1.1925-0.94387 1.2564 1.2564 0 0 0-1.2318 1.6031l2.5764 9.4682-4.528-2.614-1.5524-5.7058a1.2564 1.2564 0 0 0-1.1925-0.94387 1.2564 1.2564 0 0 0-1.2318 1.6031l0.88826 3.2635-4.9762-2.8725a1.2564 1.2564 0 0 0-0.59544-0.17668 1.2564 1.2564 0 0 0-0.66088 2.3523l4.9778 2.8725-3.2716 0.86371a1.2564 1.2564 0 1 0 0.64125 2.4292l5.7172-1.5082 4.5263 2.6124-9.4878 2.5028a1.257 1.257 0 0 0 0.64124 2.4308l11.938-3.1506 6.1769 3.5677c-0.16265 0.52403-0.25029 1.08-0.25029 1.6554 0 0.57487 0.0879 1.1302 0.25029 1.6538l-6.1802 3.5677-11.935-3.149a1.2564 1.2564 0 0 0-0.37296-0.0458 1.2564 1.2564 0 0 0-0.26828 2.475l9.4878 2.5028-4.528 2.614-5.7156-1.5082a1.2564 1.2564 0 0 0-0.37298-0.0458 1.2564 1.2564 0 0 0-0.26827 2.475l3.2684 0.86207-4.9745 2.8725a1.2564 1.2564 0 1 0 1.2563 2.1757l4.9762-2.8709-0.88826 3.2618a1.2564 1.2564 0 1 0 2.4243 0.65924l1.5524-5.7025 4.528-2.6157-2.5764 9.4681a1.2564 1.2564 0 1 0 2.4243 0.65924l3.2406-11.909 6.19-3.5759c0.75497 0.81025 1.7422 1.3986 2.8545 1.6555v7.1404l-8.6944 8.7615a1.2564 1.2564 0 1 0 1.783 1.77l6.9114-6.9653v5.2281l-4.1648 4.1959a1.2564 1.2564 0 1 0 1.783 1.77l2.3818-2.3998v5.745a1.2564 1.2564 0 1 0 2.5126 0v-5.745l2.3818 2.3998a1.2564 1.2564 0 1 0 1.783-1.77l-4.1648-4.1959v-5.2281l6.9114 6.9653a1.2568 1.2568 0 1 0 1.7847-1.77l-8.696-8.7615v-7.1404c1.1131-0.257 2.0993-0.84597 2.8545-1.6571l6.19 3.5743 3.2406 11.912a1.257 1.257 0 1 0 2.4259-0.65924l-2.5764-9.4681 4.5263 2.614 1.5524 5.7041a1.2564 1.2564 0 1 0 2.4243-0.65924l-0.88826-3.2618 4.9762 2.8709a1.2564 1.2564 0 1 0 1.2563-2.1756l-4.9745-2.8725 3.2684-0.86208a1.2564 1.2564 0 0 0-0.3059-2.475 1.2564 1.2564 0 0 0-0.33534 0.0458l-5.7156 1.5082-4.5263-2.614 9.4862-2.5028a1.2564 1.2564 0 0 0-0.3059-2.475 1.2564 1.2564 0 0 0-0.33534 0.0458l-11.935 3.149-6.1818-3.5677c0.16236-0.5236 0.25192-1.079 0.25192-1.6538 0-0.57486-0.0896-1.1302-0.25192-1.6538l6.1801-3.5677 11.937 3.149a1.257 1.257 0 1 0 0.64124-2.4308l-9.4878-2.5028 4.5247-2.6124 5.7188 1.5082a1.2564 1.2564 0 1 0 0.64124-2.4292l-3.27-0.86371 4.9762-2.8725a1.2564 1.2564 0 0 0-0.57254-2.3523 1.2564 1.2564 0 0 0-0.68378 0.17668l-4.9762 2.8725 0.88826-3.2635a1.2564 1.2564 0 0 0-1.2694-1.6015 1.2564 1.2564 0 0 0-1.1549 0.94223l-1.5524 5.7074-4.5263 2.6124 2.5764-9.4682a1.2564 1.2564 0 0 0-1.271-1.6015 1.2564 1.2564 0 0 0-1.1549 0.94224l-3.2406 11.91-6.19 3.5743c-0.75512-0.81096-1.7416-1.4001-2.8545-1.6571v-7.1404l8.696-8.7615a1.2564 1.2564 0 0 0-0.9226-2.1528 1.2564 1.2564 0 0 0-0.86208 0.38442l-6.9114 6.9637v-5.2264l4.1648-4.1975a1.2564 1.2564 0 0 0-0.92097-2.1527 1.2564 1.2564 0 0 0-0.86208 0.38278l-2.3818 2.4014v-5.745a1.2564 1.2564 0 0 0-1.2743-1.2743zm8.1088 16.589a1.2564 1.2564 0 0 0-0.12596 2e-3 1.2564 1.2564 0 0 0-0.8997 0.46621l-2.8774 2.8398a1.2564 1.2564 0 0 0-0.37133 0.81792l-0.13742 2.2902a1.2564 1.2564 0 0 0 0.20612 0.99295 1.2564 1.2564 0 0 0 1.9057 0.19139l1.8861-1.2449a1.2564 1.2564 0 0 0 0.52183-0.73121l1.024-3.9227a1.2564 1.2564 0 0 0-0.33534-1.3741 1.2564 1.2564 0 0 0-0.0163-0.0131 1.2564 1.2564 0 0 0-0.0589-0.0491 1.2564 1.2564 0 0 0-0.054-0.0393 1.2564 1.2564 0 0 0-0.0474-0.0311 1.2564 1.2564 0 0 0-0.0867-0.0507 1.2564 1.2564 0 0 0-0.0115-5e-3 1.2564 1.2564 0 0 0-0.52183-0.13904zm-16.283 0.1096a1.2564 1.2564 0 0 0-0.74266 0.21756 1.2564 1.2564 0 0 0-0.0687 0.0491 1.2564 1.2564 0 0 0-0.01 8e-3 1.2564 1.2564 0 0 0-0.0769 0.0671 1.2564 1.2564 0 0 0-0.0261 0.0229 1.2564 1.2564 0 0 0-0.29281 1.343l1.0208 3.9162a1.2564 1.2564 0 0 0 0.52347 0.73121l2.0628 1.361a1.2564 1.2564 0 0 0 0.0687 0.0426 1.2569 1.2569 0 0 0 8e-3 5e-3 1.2564 1.2564 0 0 0 2e-3 0 1.2564 1.2564 0 0 0 1.8583-1.3414l-0.13905-2.2967a1.2564 1.2564 0 0 0-0.37134-0.81954l-2.8774-2.8382a1.2564 1.2564 0 0 0-0.93897-0.46784zm8.1922 12.185c1.736 0 3.1162 1.3802 3.1162 3.1162s-1.3802 3.1162-3.1162 3.1162-3.1162-1.3802-3.1162-3.1162 1.3802-3.1162 3.1162-3.1162zm12.203 0.64616a1.2564 1.2564 0 0 0-0.52183 0.1325l-2.0513 1.024a1.2564 1.2564 0 0 0-0.18484 2.3147 1.2565 1.2565 0 0 0 0.0147 8e-3 1.2564 1.2564 0 0 0 0.01 5e-3l2.2116 1.1058a1.2564 1.2564 0 0 0 0.89479 0.0867l3.8851-1.0682a1.2564 1.2564 0 0 0 1.0682-1.1026 1.2564 1.2564 0 0 0 2e-3 -0.0131 1.2564 1.2564 0 0 0 5e-3 -0.0965 1.2564 1.2564 0 0 0 2e-3 -0.0393 1.2564 1.2564 0 0 0-3e-3 -0.0719 1.2564 1.2564 0 0 0-8e-3 -0.0982 1.2564 1.2564 0 0 0-2e-3 -0.01 1.2564 1.2564 0 0 0-1.0633-1.0633l-3.8851-1.0698a1.2564 1.2564 0 0 0-0.37297-0.0441zm-24.492 0.21756a1.2564 1.2564 0 0 0-0.2879 0.0441l-3.8704 1.0649a1.2564 1.2564 0 0 0-1.0829 1.0993 1.2564 1.2564 0 0 0-3e-3 0.0213 1.2564 1.2564 0 0 0-5e-3 0.0867 1.2564 1.2564 0 0 0 0 0.0883 1.2564 1.2564 0 0 0 0 7e-3 1.2564 1.2564 0 0 0 1.0764 1.1974l3.8851 1.0698a1.2564 1.2564 0 0 0 0.89643-0.0883l1.9793-0.98967a1.2564 1.2564 0 0 0 0.6118-2.0906 1.2564 1.2564 0 0 0-0.52837-0.34516l-2.0628-1.0322a1.2564 1.2564 0 0 0-0.6085-0.13249zm17.43 9.6121a1.2564 1.2564 0 0 0-0.64124 0.15867 1.2564 1.2564 0 0 0-0.0261 0.0147 1.2564 1.2564 0 0 0-0.0752 0.0474 1.2564 1.2564 0 0 0-0.0458 0.0343 1.2564 1.2564 0 0 0-0.0393 0.0295 1.2564 1.2564 0 0 0-0.44658 1.2252l0.13741 2.3065a1.2564 1.2564 0 0 0 0.37133 0.81791l2.8512 2.8136a1.2564 1.2564 0 0 0 1.5066 0.39423 1.2564 1.2564 0 0 0 2e-3 -0.0017 1.2564 1.2564 0 0 0 0.11123-0.05394 1.2564 1.2564 0 0 0 7e-3 -5e-3 1.2564 1.2564 0 0 0 0.0736-0.04414 1.2564 1.2564 0 0 0 0.47603-1.5311l-1.0142-3.8883a1.2564 1.2564 0 0 0-0.52346-0.73122l-1.9139-1.2628a1.2564 1.2564 0 0 0-0.80972-0.3239zm-10.131 0.1096a1.2564 1.2564 0 0 0-0.76229 0.31571l-1.9237 1.271a1.2564 1.2564 0 0 0-0.52347 0.7312l-1.0535 4.0323a1.257 1.257 0 0 0-8e-3 0.0376 1.2568 1.2568 0 0 0-0.0131 0.0622 1.257 1.257 0 0 0-0.01 0.0621 1.2568 1.2568 0 0 0-7e-3 0.0622 1.257 1.257 0 0 0-2e-3 0.0605 1.2568 1.2568 0 0 0 0 0.0736 1.257 1.257 0 0 0 2e-3 0.0343 1.2568 1.2568 0 0 0 8e-3 0.0916 1.257 1.257 0 0 0 7e-3 0.0376 1.2568 1.2568 0 0 0 0.0163 0.0867 1.257 1.257 0 0 0 0.0131 0.0426 1.2568 1.2568 0 0 0 0.018 0.0654 1.257 1.257 0 0 0 0.0245 0.0638 1.2568 1.2568 0 0 0 0.0245 0.0573 1.257 1.257 0 0 0 0.0278 0.05561 1.2568 1.2568 0 0 0 0.0245 0.04908 1.257 1.257 0 0 0 0.0409 0.06709 1.2568 1.2568 0 0 0 0.0278 0.03928 1.257 1.257 0 0 0 0.0507 0.06541 1.2568 1.2568 0 0 0 0.0245 0.02948 1.257 1.257 0 0 0 0.0556 0.05888 1.2568 1.2568 0 0 0 0.0409 0.03928 1.257 1.257 0 0 0 0.0376 0.03434 1.2568 1.2568 0 0 0 0.0606 0.0474 1.257 1.257 0 0 0 0.0508 0.03602 1.2568 1.2568 0 0 0 0.0426 0.02781 1.257 1.257 0 0 0 0.0638 0.03601 1.2568 1.2568 0 0 0 0.0621 0.03107 1.257 1.257 0 0 0 0.036 0.01633 1.2568 1.2568 0 0 0 0.0704 0.02781 1.257 1.257 0 0 0 0.0638 0.02127 1.2568 1.2568 0 0 0 0.0556 0.01633 1.257 1.257 0 0 0 0.0638 0.01307 1.2568 1.2568 0 0 0 0.0606 0.0098 1.257 1.257 0 0 0 0.09 0.0098 1.2568 1.2568 0 0 0 0.0131 0.0017 1.257 1.257 0 0 0 7e-3 0 1.257 1.257 0 0 0 0.0802 0.0017 1.2568 1.2568 0 0 0 0.0703-0.0017 1.257 1.257 0 0 0 0.0507-5e-3 1.2568 1.2568 0 0 0 0.0589-0.0067 1.257 1.257 0 0 0 0.0638-0.01147 1.2568 1.2568 0 0 0 0.0851-0.0196 1.2568 1.2568 0 0 0 3e-3 -0.0017 1.257 1.257 0 0 0 8e-3 -0.0033 1.2568 1.2568 0 0 0 0.09-0.02948 1.257 1.257 0 0 0 0.0556-0.02286 1.2568 1.2568 0 0 0 0.0621-0.02781 1.2568 1.2568 0 0 0 0.018-0.0084 1.257 1.257 0 0 0 0.0261-0.01633 1.2568 1.2568 0 0 0 0.0622-0.03434 1.257 1.257 0 0 0 0.0638-0.04255 1.257 1.257 0 0 0 0.0213-0.01474 1.2568 1.2568 0 0 0 0.0115-0.0084 1.257 1.257 0 0 0 0.0507-0.04087 1.2568 1.2568 0 0 0 0.0687-0.06215 1.2568 1.2568 0 0 0 5e-3 -0.0033l2.9657-2.9281a1.2564 1.2564 0 0 0 0.37297-0.81954l0.13736-2.3015a1.2564 1.2564 0 0 0-0.3926-1.1827 1.2564 1.2564 0 0 0-0.0851-0.0704 1.2564 1.2564 0 0 0-0.0115-0.01 1.2564 1.2564 0 0 0-0.0638-0.0441 1.2564 1.2564 0 0 0-7e-3 -3e-3 1.2564 1.2564 0 0 0-0.10142-0.0589 1.2564 1.2564 0 0 0-0.52511-0.14396 1.2564 1.2564 0 0 0-0.12595 0z"/>
		</symbol>
		<symbol id="courbe" viewBox="0 0 64 64">
			<path d="m31.982 1.6717e-4a1.2169 1.2169 0 0 0-0.84128 0.35647c-2.7876 2.7876-2.9016 7.2605-0.35647 10.195v11.382c-1.2835-0.17335-2.4746-0.60571-3.5916-1.1724-0.28761-4.242-2.6087-8.2733-6.5575-10.553a1.2169 1.2169 0 0 0-0.57985-0.16319 1.2169 1.2169 0 0 0-1.2453 1.2168c0 4.5598 2.332 8.5839 5.862 10.954-0.0675 1.251-0.28939 2.4994-0.78107 3.6978l-9.8481-5.6861c-0.93494-2.7169-3.3286-4.5932-6.0537-4.9763-0.96314-0.13542-1.9674-0.0845-2.9627 0.1822a1.2169 1.2169 0 0 0-0.86029 1.4908c1.0204 3.8082 4.8376 6.143 8.652 5.4057l9.8544 5.6909c-0.7916 1.024-1.76 1.84-2.809 2.5238-3.8175-1.8721-8.4689-1.8775-12.418 0.40242a1.2169 1.2169 0 0 0 0 2.1071c3.9487 2.2798 8.6005 2.2742 12.418 0.40243 1.0495 0.68417 2.0187 1.499 2.8106 2.5238l-9.8576 5.6909c-0.82321-0.15889-1.6461-0.18312-2.4414-0.0713-2.8894 0.40625-5.4089 2.4911-6.2089 5.477a1.2169 1.2169 0 0 0 0.86029 1.4908c3.8076 1.0202 7.7376-1.1184 9.0068-4.7894l9.856-5.6909c0.49125 1.1977 0.71504 2.446 0.78266 3.6962-3.53 2.37-5.862 6.3958-5.862 10.956a1.2169 1.2169 0 0 0 1.8251 1.0536c3.9493-2.2801 6.2704-6.3122 6.5575-10.555 1.117-0.56669 2.3082-0.99905 3.5916-1.1724v11.382c-2.5456 2.9347-2.4313 7.4089 0.35647 10.197a1.2169 1.2169 0 0 0 1.7206 0c2.7876-2.7876 2.9016-7.262 0.35647-10.197v-11.382c1.283 0.17376 2.4747 0.60701 3.5916 1.174 0.28762 4.242 2.6071 8.2733 6.5559 10.553a1.2169 1.2169 0 0 0 1.8251-1.0536c0-4.5593-2.3311-8.5854-5.8604-10.956 0.0677-1.2503 0.28868-2.4986 0.77948-3.6962l9.856 5.6909c1.2692 3.671 5.2007 5.8096 9.0084 4.7894a1.2169 1.2169 0 0 0 0.86028-1.4908c-0.80006-2.9858-3.3195-5.0707-6.2089-5.477-0.79491-0.11177-1.6187-0.0889-2.4414 0.0697l-9.8576-5.6909c0.79195-1.0245 1.7627-1.8399 2.8122-2.5238 3.8175 1.8721 8.4673 1.8791 12.416-0.40084a1.2169 1.2169 0 0 0 0-2.1071c-3.949-2.2799-8.5988-2.2745-12.416-0.40242-1.0494-0.68387-2.0202-1.4997-2.8122-2.5238l9.856-5.6909c3.814 0.7367 7.6316-1.5978 8.652-5.4057a1.2169 1.2169 0 0 0-0.86028-1.4908c-0.99528-0.26669-1.9995-0.31762-2.9627-0.1822-2.7255 0.38321-5.1207 2.2602-6.0553 4.9779l-9.8465 5.6845c-0.49127-1.1985-0.71198-2.4467-0.77948-3.6978 3.5293-2.3701 5.8604-6.3947 5.8604-10.954a1.2169 1.2169 0 0 0-1.8251-1.0536c-3.9483 2.2796-6.2678 6.3102-6.5559 10.552-1.117 0.56696-2.3087 0.99864-3.5916 1.1724v-11.38c2.5451-2.9346 2.4311-7.4075-0.35647-10.195a1.2169 1.2169 0 0 0-0.87929-0.35647zm-10.311 14.108c1.3441 1.36 2.3018 3.006 2.771 4.8005-1.3195-1.3036-2.2652-2.9563-2.771-4.8005zm20.658 0c-0.50574 1.8441-1.4515 3.4969-2.771 4.8005 0.46915-1.7942 1.4271-3.4405 2.771-4.8005zm-15.249 9.3697c1.4459 0.58494 3.0138 0.92426 4.6579 0.95851a1.2169 1.2169 0 0 0 0.53233 0c1.6415-0.035 3.2061-0.37436 4.65-0.95851 0.21417 1.529 0.69694 3.0411 1.475 4.4694a1.2169 1.2169 0 0 0 0.31053 0.53867c0.8481 1.3891 1.9174 2.5634 3.1354 3.514-1.228 0.95847-2.3063 2.1431-3.1576 3.5473a1.2169 1.2169 0 0 0-0.27091 0.47054c-0.78919 1.4382-1.2766 2.963-1.4924 4.5042-1.4448-0.58453-3.0104-0.92686-4.6531-0.96167a1.2169 1.2169 0 0 0-0.28517-0.0301 1.2169 1.2169 0 0 0-0.25984 0.0317c-1.6383 0.0363-3.2008 0.37705-4.642 0.96009-0.21682-1.5478-0.70518-3.0796-1.5004-4.5232a1.2169 1.2169 0 0 0-0.25824-0.44519c-0.85198-1.407-1.9325-2.5937-3.1623-3.5536 1.2208-0.95289 2.2941-2.13 3.1433-3.5235a1.2169 1.2169 0 0 0 0.29786-0.51807c0.78151-1.4314 1.265-2.9475 1.4798-4.4804zm4.9209 3.0387c-3.0139 0-5.4833 2.4694-5.4833 5.4833 0 3.0139 2.4694 5.4833 5.4833 5.4833s5.4833-2.4695 5.4833-5.4833c0-3.0139-2.4695-5.4833-5.4833-5.4833zm0 2.4335c1.6987 0 3.0498 1.3511 3.0498 3.0498 0 1.6987-1.3511 3.0498-3.0498 3.0498s-3.0498-1.3511-3.0498-3.0498c0-1.6987 1.3511-3.0498 3.0498-3.0498zm-18.231 2.6601c1.0552-0.0236 2.1045 0.11246 3.1148 0.38973-1.7886 0.49088-3.6937 0.48401-5.5435 0 0.45665-0.11947 0.91193-0.25438 1.3736-0.3121 0.35216-0.044 0.70344-0.0698 1.0552-0.0776zm36.458 0c0.35172 8e-3 0.70459 0.0336 1.0567 0.0776 0.46168 0.0577 0.91696 0.19263 1.3736 0.3121-1.8499 0.48401-3.7549 0.49088-5.5435 0 1.0103-0.27727 2.058-0.41337 3.1132-0.38973zm-25.786 13.479c-0.46924 1.7946-1.4267 3.442-2.771 4.8021 0.50572-1.8442 1.4515-3.4984 2.771-4.8021zm15.116 0c1.3191 1.3032 2.2651 2.957 2.771 4.8005-1.3436-1.3598-2.3019-3.0065-2.771-4.8005z"/>
		</symbol>
	</defs>
</svg>
